<svg viewBox="0 0 24 24" xmlns="http://www.w3.org/2000/svg" xmlns:xlink="http://www.w3.org/1999/xlink" width="24.000000" height="24.000000" fill="none">
	<defs>
		<clipPath id="clipPath_0">
			<rect width="24.000000" height="24.000000" x="0.000000" y="0.000000" fill="rgb(255,255,255)" />
		</clipPath>
	</defs>
	<rect id="Link / Image" width="24.000000" height="24.000000" x="0.000000" y="0.000000" fill="rgb(0,0,0)" fill-opacity="0" />
	<g id="Frame" clip-path="url(#clipPath_0)" customFrame="url(#clipPath_0)">
		<rect id="Frame" width="24.000000" height="24.000000" x="0.000000" y="0.000000" fill="rgb(255,255,255)" fill-opacity="0" />
		<path id="Vector" d="M7 20.5C4 20.5 2 19 2 15.5L2 8.5C2 5 4 3.5 7 3.5L17 3.5C20 3.5 22 5 22 8.5L22 15.5C22 19 20 20.5 17 20.5L7 20.5Z" fill-rule="nonzero" stroke="rgb(255,253,249)" stroke-linecap="round" stroke-linejoin="round" stroke-width="1.500000" />
		<path id="Vector" d="M17 9L13.87 11.5C12.84 12.32 11.15 12.32 10.12 11.5L7 9" fill-rule="nonzero" stroke="rgb(255,253,249)" stroke-linecap="round" stroke-linejoin="round" stroke-width="1.500000" />
	</g>
</svg>
