<svg viewBox="0 0 30 30" xmlns="http://www.w3.org/2000/svg" xmlns:xlink="http://www.w3.org/1999/xlink" width="30.000000" height="30.000000" fill="none">
	<rect id="Premium Icons" width="30.000000" height="30.000000" x="0.000000" y="0.000000" fill="rgb(255,255,255)" fill-opacity="0" />
	<path id="Vector" d="M7.0002 2C5.90714 2 5.0002 2.90694 5.0002 4L5.0002 8.83203C4.98235 8.94002 4.98235 9.05021 5.0002 9.1582L5.0002 14.832C4.98235 14.94 4.98235 15.0502 5.0002 15.1582L5.0002 20.832C4.98235 20.94 4.98235 21.0502 5.0002 21.1582L5.0002 26C5.0002 27.0931 5.90714 28 7.0002 28L23.0002 28C24.0933 28 25.0002 27.0931 25.0002 26L25.0002 21.168C25.0181 21.06 25.0181 20.9498 25.0002 20.8418L25.0002 15.168C25.0181 15.06 25.0181 14.9498 25.0002 14.8418L25.0002 9.16797C25.0181 9.05998 25.0181 8.94979 25.0002 8.8418L25.0002 4C25.0002 2.90694 24.0933 2 23.0002 2L7.0002 2ZM7.0002 4L23.0002 4L23.0002 8L21.0002 8C21.002 7.86621 20.977 7.73341 20.9266 7.60947C20.8762 7.48553 20.8014 7.37297 20.7067 7.27845C20.612 7.18393 20.4993 7.10937 20.3752 7.05919C20.2512 7.00902 20.1184 6.98424 19.9846 6.98633C19.7197 6.99047 19.4673 7.09953 19.2827 7.28957C19.0982 7.47962 18.9966 7.73512 19.0002 8L15.0002 8C15.002 7.86621 14.977 7.73341 14.9266 7.60947C14.8762 7.48553 14.8014 7.37297 14.7067 7.27845C14.612 7.18393 14.4993 7.10937 14.3752 7.05919C14.2512 7.00902 14.1184 6.98424 13.9846 6.98633C13.7197 6.99047 13.4673 7.09953 13.2827 7.28957C13.0982 7.47962 12.9966 7.73512 13.0002 8L11.0002 8C11.002 7.86621 10.977 7.73341 10.9266 7.60947C10.8762 7.48553 10.8014 7.37297 10.7067 7.27845C10.612 7.18393 10.4993 7.10937 10.3752 7.05919C10.2512 7.00902 10.1184 6.98424 9.98458 6.98633C9.7197 6.99047 9.46729 7.09953 9.28274 7.28957C9.09819 7.47962 8.99658 7.73512 9.0002 8L7.0002 8L7.0002 4ZM7.0002 10L9.0002 10C8.99833 10.1325 9.02281 10.2641 9.07222 10.387C9.12164 10.51 9.195 10.6219 9.28804 10.7163C9.38109 10.8107 9.49196 10.8856 9.61422 10.9368C9.73647 10.9879 9.86768 11.0142 10.0002 11.0142C10.1327 11.0142 10.2639 10.9879 10.3862 10.9368C10.5084 10.8856 10.6193 10.8107 10.7124 10.7163C10.8054 10.6219 10.8788 10.51 10.9282 10.387C10.9776 10.2641 11.0021 10.1325 11.0002 10L13.0002 10C12.9983 10.1325 13.0228 10.2641 13.0722 10.387C13.1216 10.51 13.195 10.6219 13.288 10.7163C13.3811 10.8107 13.492 10.8856 13.6142 10.9368C13.7365 10.9879 13.8677 11.0142 14.0002 11.0142C14.1327 11.0142 14.2639 10.9879 14.3862 10.9368C14.5084 10.8856 14.6193 10.8107 14.7124 10.7163C14.8054 10.6219 14.8788 10.51 14.9282 10.387C14.9776 10.2641 15.0021 10.1325 15.0002 10L19.0002 10C18.9983 10.1325 19.0228 10.2641 19.0722 10.387C19.1216 10.51 19.195 10.6219 19.288 10.7163C19.3811 10.8107 19.492 10.8856 19.6142 10.9368C19.7365 10.9879 19.8677 11.0142 20.0002 11.0142C20.1327 11.0142 20.2639 10.9879 20.3862 10.9368C20.5084 10.8856 20.6193 10.8107 20.7124 10.7163C20.8054 10.6219 20.8788 10.51 20.9282 10.387C20.9776 10.2641 21.0021 10.1325 21.0002 10L23.0002 10L23.0002 14L19.0002 14C19.002 13.8662 18.977 13.7334 18.9266 13.6095C18.8762 13.4855 18.8014 13.373 18.7067 13.2784C18.612 13.1839 18.4993 13.1094 18.3752 13.0592C18.2512 13.009 18.1184 12.9842 17.9846 12.9863C17.7197 12.9905 17.4673 13.0995 17.2827 13.2896C17.0982 13.4796 16.9966 13.7351 17.0002 14L15.0002 14C15.002 13.8662 14.977 13.7334 14.9266 13.6095C14.8762 13.4855 14.8014 13.373 14.7067 13.2784C14.612 13.1839 14.4993 13.1094 14.3752 13.0592C14.2512 13.009 14.1184 12.9842 13.9846 12.9863C13.7197 12.9905 13.4673 13.0995 13.2827 13.2896C13.0982 13.4796 12.9966 13.7351 13.0002 14L11.0002 14C11.002 13.8662 10.977 13.7334 10.9266 13.6095C10.8762 13.4855 10.8014 13.373 10.7067 13.2784C10.612 13.1839 10.4993 13.1094 10.3752 13.0592C10.2512 13.009 10.1184 12.9842 9.98458 12.9863C9.7197 12.9905 9.46729 13.0995 9.28274 13.2896C9.09819 13.4796 8.99658 13.7351 9.0002 14L7.0002 14L7.0002 10ZM7.0002 16L9.0002 16C8.99833 16.1325 9.02281 16.2641 9.07222 16.387C9.12164 16.51 9.195 16.6219 9.28804 16.7163C9.38109 16.8107 9.49196 16.8856 9.61422 16.9368C9.73647 16.9879 9.86768 17.0142 10.0002 17.0142C10.1327 17.0142 10.2639 16.9879 10.3862 16.9368C10.5084 16.8856 10.6193 16.8107 10.7124 16.7163C10.8054 16.6219 10.8788 16.51 10.9282 16.387C10.9776 16.2641 11.0021 16.1325 11.0002 16L13.0002 16C12.9983 16.1325 13.0228 16.2641 13.0722 16.387C13.1216 16.51 13.195 16.6219 13.288 16.7163C13.3811 16.8107 13.492 16.8856 13.6142 16.9368C13.7365 16.9879 13.8677 17.0142 14.0002 17.0142C14.1327 17.0142 14.2639 16.9879 14.3862 16.9368C14.5084 16.8856 14.6193 16.8107 14.7124 16.7163C14.8054 16.6219 14.8788 16.51 14.9282 16.387C14.9776 16.2641 15.0021 16.1325 15.0002 16L17.0002 16C16.9983 16.1325 17.0228 16.2641 17.0722 16.387C17.1216 16.51 17.195 16.6219 17.288 16.7163C17.3811 16.8107 17.492 16.8856 17.6142 16.9368C17.7365 16.9879 17.8677 17.0142 18.0002 17.0142C18.1327 17.0142 18.2639 16.9879 18.3862 16.9368C18.5084 16.8856 18.6193 16.8107 18.7124 16.7163C18.8054 16.6219 18.8788 16.51 18.9282 16.387C18.9776 16.2641 19.0021 16.1325 19.0002 16L23.0002 16L23.0002 20L21.0002 20C21.002 19.8662 20.977 19.7334 20.9266 19.6095C20.8762 19.4855 20.8014 19.373 20.7067 19.2784C20.612 19.1839 20.4993 19.1094 20.3752 19.0592C20.2512 19.009 20.1184 18.9842 19.9846 18.9863C19.7197 18.9905 19.4673 19.0995 19.2827 19.2896C19.0982 19.4796 18.9966 19.7351 19.0002 20L17.0002 20C17.002 19.8662 16.977 19.7334 16.9266 19.6095C16.8762 19.4855 16.8014 19.373 16.7067 19.2784C16.612 19.1839 16.4993 19.1094 16.3752 19.0592C16.2512 19.009 16.1184 18.9842 15.9846 18.9863C15.7197 18.9905 15.4673 19.0995 15.2827 19.2896C15.0982 19.4796 14.9966 19.7351 15.0002 20L11.0002 20C11.002 19.8662 10.977 19.7334 10.9266 19.6095C10.8762 19.4855 10.8014 19.373 10.7067 19.2784C10.612 19.1839 10.4993 19.1094 10.3752 19.0592C10.2512 19.009 10.1184 18.9842 9.98458 18.9863C9.7197 18.9905 9.46729 19.0995 9.28274 19.2896C9.09819 19.4796 8.99658 19.7351 9.0002 20L7.0002 20L7.0002 16ZM7.0002 22L9.0002 22C8.99833 22.1325 9.02281 22.2641 9.07222 22.387C9.12164 22.51 9.195 22.6219 9.28804 22.7163C9.38109 22.8107 9.49196 22.8856 9.61422 22.9368C9.73647 22.9879 9.86768 23.0142 10.0002 23.0142C10.1327 23.0142 10.2639 22.9879 10.3862 22.9368C10.5084 22.8856 10.6193 22.8107 10.7124 22.7163C10.8054 22.6219 10.8788 22.51 10.9282 22.387C10.9776 22.2641 11.0021 22.1325 11.0002 22L15.0002 22C14.9983 22.1325 15.0228 22.2641 15.0722 22.387C15.1216 22.51 15.195 22.6219 15.288 22.7163C15.3811 22.8107 15.492 22.8856 15.6142 22.9368C15.7365 22.9879 15.8677 23.0142 16.0002 23.0142C16.1327 23.0142 16.2639 22.9879 16.3862 22.9368C16.5084 22.8856 16.6193 22.8107 16.7124 22.7163C16.8054 22.6219 16.8788 22.51 16.9282 22.387C16.9776 22.2641 17.0021 22.1325 17.0002 22L19.0002 22C18.9983 22.1325 19.0228 22.2641 19.0722 22.387C19.1216 22.51 19.195 22.6219 19.288 22.7163C19.3811 22.8107 19.492 22.8856 19.6142 22.9368C19.7365 22.9879 19.8677 23.0142 20.0002 23.0142C20.1327 23.0142 20.2639 22.9879 20.3862 22.9368C20.5084 22.8856 20.6193 22.8107 20.7124 22.7163C20.8054 22.6219 20.8788 22.51 20.9282 22.387C20.9776 22.2641 21.0021 22.1325 21.0002 22L23.0002 22L23.0002 26L7.0002 26L7.0002 22Z" fill="rgb(255,255,255)" fill-rule="nonzero" />
</svg>
