<svg viewBox="0 0 30 30" xmlns="http://www.w3.org/2000/svg" xmlns:xlink="http://www.w3.org/1999/xlink" width="30.000000" height="30.000000" fill="none">
	<rect id="Premium Icons" width="30.000000" height="30.000000" x="0.000000" y="0.000000" fill="rgb(255,255,255)" fill-opacity="0" />
	<path id="Vector" d="M23 2L7 2C5.9 2 5 2.9 5 4L5 26C5 27.1 5.9 28 7 28L23 28C24.1 28 25 27.1 25 26L25 4C25 2.9 24.1 2 23 2ZM17 4L16 6L14 6L13 4L17 4ZM15 26L12 23L14 8L16 8L18 23L15 26Z" fill="rgb(255,255,255)" fill-rule="nonzero" />
</svg>
