<svg viewBox="0 0 30 30" xmlns="http://www.w3.org/2000/svg" xmlns:xlink="http://www.w3.org/1999/xlink" width="30.000000" height="30.000000" fill="none">
	<rect id="Premium Icons" width="30.000000" height="30.000000" x="0.000000" y="0.000000" fill="rgb(255,255,255)" fill-opacity="0" />
	<path id="Vector" d="M15 2C8.925 2 4 6.925 4 13C4 20.234 11.152 23.697 12.048 24.503C12.963 25.326 13.719 27.171 14.024 28.217C14.172 28.725 14.588 28.982 15 28.993C15.413 28.981 15.828 28.724 15.976 28.217C16.281 27.171 17.037 25.327 17.952 24.503C18.848 23.697 26 20.234 26 13C26 6.925 21.075 2 15 2ZM12.564 11.984C12.387 11.969 12.109 11.793 12.027 11.098C11.983 10.725 12.158 10.515 12.264 10.449C12.264 10.449 12 9.847 12 9.25C12 7.474 12.879 6 15 6C16.145 6 16.5 6.812 16.5 6.812C17.523 6.812 18 7.934 18 9.25C18 9.906 17.736 10.449 17.736 10.449C17.842 10.515 18.017 10.725 17.973 11.098C17.891 11.793 17.613 11.969 17.436 11.984C17.368 12.632 16.725 13.462 16.5 13.583L16.5 14.666C16.949 16.126 20.215 15.411 20.875 17.999L9.125 17.999C9.785 15.411 13.051 16.126 13.5 14.666L13.5 13.583C13.275 13.463 12.632 12.633 12.564 11.984Z" fill="rgb(255,255,255)" fill-rule="nonzero" />
</svg>
