<svg viewBox="0 0 30 30" xmlns="http://www.w3.org/2000/svg" xmlns:xlink="http://www.w3.org/1999/xlink" width="30.000000" height="30.000000" fill="none">
	<rect id="Premium Icons" width="30.000000" height="30.000000" x="0.000000" y="0.000000" fill="rgb(255,255,255)" fill-opacity="0" />
	<path id="Vector" d="M15.0001 2C14.6336 2 14.2674 2.17766 14.0529 2.53516L13.6368 3.23242C13.4568 3.53242 13.1594 3.73417 12.8224 3.82617C12.8184 3.82717 12.8147 3.82908 12.8107 3.83008C12.4697 3.92408 12.1079 3.89661 11.7989 3.72461L11.09 3.33008C10.361 2.92508 9.46334 3.44234 9.44934 4.27734L9.43371 5.10156C9.42771 5.44956 9.27346 5.77253 9.02746 6.01953C9.02446 6.02153 9.02165 6.02434 9.01965 6.02734C8.77365 6.27434 8.44968 6.42759 8.10168 6.43359L7.27746 6.44727C6.44346 6.46127 5.9252 7.35984 6.3302 8.08984L6.72668 8.80273C6.89668 9.10973 6.92515 9.46864 6.83215 9.80664C6.82915 9.81264 6.82829 9.81822 6.82629 9.82422C6.73529 10.1592 6.53345 10.4538 6.23645 10.6328L5.53723 11.0527C4.82223 11.4817 4.82223 12.5183 5.53723 12.9473L6.23645 13.3672C6.53445 13.5462 6.73529 13.8408 6.82629 14.1758C6.82829 14.1818 6.8282 14.1883 6.8302 14.1953C6.9232 14.5333 6.89668 14.8932 6.72668 15.1992L6.3302 15.9121C5.9252 16.6411 6.44246 17.5387 7.27746 17.5527L8.10168 17.5664C8.45068 17.5724 8.77365 17.7286 9.01965 17.9746L9.02746 17.9824C9.27446 18.2284 9.42771 18.5524 9.43371 18.9004L9.44738 19.7227C9.46138 20.5567 10.361 21.0759 11.09 20.6719L11.8029 20.2754C12.1099 20.1054 12.4688 20.0769 12.8068 20.1699C12.8128 20.1719 12.8183 20.1738 12.8243 20.1758C13.1593 20.2668 13.4539 20.4676 13.6329 20.7656L14.0529 21.4648C14.4819 22.1798 15.5184 22.1798 15.9474 21.4648L16.3673 20.7656C16.5463 20.4676 16.8409 20.2668 17.1759 20.1758C17.1819 20.1738 17.1894 20.1719 17.1954 20.1699C17.5334 20.0769 17.8933 20.1054 18.1993 20.2754L18.9122 20.6719C19.6412 21.0769 20.5389 20.5577 20.5529 19.7227L20.5665 18.9004C20.5725 18.5514 20.7287 18.2284 20.9747 17.9824L20.9825 17.9746C21.2285 17.7276 21.5525 17.5724 21.9005 17.5664L22.7228 17.5527C23.5568 17.5387 24.076 16.6411 23.672 15.9121L23.2755 15.1992C23.1055 14.8922 23.077 14.5333 23.17 14.1953C23.172 14.1893 23.1739 14.1818 23.1759 14.1758C23.2669 13.8408 23.4677 13.5462 23.7657 13.3672L24.465 12.9473C25.18 12.5173 25.18 11.4827 24.465 11.0527L23.7657 10.6328C23.4677 10.4538 23.2669 10.1592 23.1759 9.82422C23.1739 9.81822 23.172 9.81069 23.17 9.80469C23.077 9.46669 23.1055 9.10678 23.2755 8.80078L23.672 8.08789C24.077 7.35889 23.5578 6.46127 22.7228 6.44727L21.9005 6.43359C21.5515 6.42759 21.2285 6.27139 20.9825 6.02539L20.9747 6.01758C20.7277 5.77158 20.5725 5.44761 20.5665 5.09961L20.5529 4.27734C20.5389 3.44334 19.6412 2.92412 18.9122 3.32812L18.1993 3.72461C17.8923 3.89461 17.5334 3.92308 17.1954 3.83008C17.1894 3.82808 17.1819 3.82622 17.1759 3.82422C16.8409 3.73322 16.5463 3.53137 16.3673 3.23438L15.9474 2.53516C15.7329 2.17766 15.3666 2 15.0001 2ZM19.0001 9C19.2559 9 19.5116 9.09747 19.7071 9.29297C20.0981 9.68397 20.0981 10.316 19.7071 10.707L15.1466 15.2676C14.9586 15.4556 14.7046 15.5605 14.4396 15.5605C14.1746 15.5605 13.9195 15.4556 13.7325 15.2676L11.2794 12.8145C10.8884 12.4235 10.8884 11.7914 11.2794 11.4004C11.6704 11.0094 12.3025 11.0094 12.6935 11.4004L14.4396 13.1465L18.2931 9.29297C18.4886 9.09747 18.7444 9 19.0001 9ZM7.74816 21.0156L5.54113 26.3027L9.41809 25.9629L12.0001 29L14.1407 23.873C13.3957 23.66 12.751 23.1822 12.338 22.4922L12.2345 22.3203L12.0607 22.418C11.5987 22.674 11.0788 22.8086 10.5548 22.8086C9.32081 22.8086 8.24716 22.0706 7.74816 21.0156ZM22.2521 21.0156C21.7531 22.0706 20.6794 22.8105 19.4454 22.8105C18.9224 22.8105 18.4016 22.675 17.9396 22.418L17.7657 22.3203L17.6622 22.4922C17.2482 23.1812 16.6025 23.661 15.8575 23.873L18.0001 29L20.5821 25.9648L24.4591 26.3027L22.2521 21.0156Z" fill="rgb(255,255,255)" fill-rule="nonzero" />
</svg>
