<svg viewBox="0 0 30 30" xmlns="http://www.w3.org/2000/svg" xmlns:xlink="http://www.w3.org/1999/xlink" width="30.000000" height="30.000000" fill="none">
	<rect id="Premium Icons" width="30.000000" height="30.000000" x="0.000000" y="0.000000" fill="rgb(255,255,255)" fill-opacity="0" />
	<path id="Vector" d="M11.1893 3.28908C14.6883 6.78808 16.7703 9.52346 15.7713 10.5235L18.6814 13.4336C19.0724 13.8246 19.7055 13.8246 20.0955 13.4336L20.5857 12.9434L21.8201 14.1797L21.3299 14.668C20.9389 15.059 20.9389 15.6921 21.3299 16.0821L22.1014 16.8535C22.6004 17.3525 23.41 17.3525 23.91 16.8535L26.6229 14.1406C27.1219 13.6416 27.1229 12.8321 26.6229 12.3321L25.8514 11.5606C25.4624 11.1696 24.8303 11.1686 24.4393 11.5586L23.9119 12.084L22.6775 10.8496L23.2029 10.3242C23.5939 9.93324 23.5939 9.30018 23.2029 8.91018L20.2947 6.00002C17.5487 3.25402 13.2973 3.28908 11.1893 3.28908ZM14.115 12.4375L4.35527 22.2149C3.88027 22.6879 3.88027 23.4547 4.35527 23.9297L6.07207 25.6465C6.54507 26.1215 7.31391 26.1215 7.78691 25.6465L17.5486 15.8692L14.115 12.4375Z" fill="rgb(255,255,255)" fill-rule="nonzero" />
</svg>
