<svg viewBox="0 0 30 30" xmlns="http://www.w3.org/2000/svg" xmlns:xlink="http://www.w3.org/1999/xlink" width="30.000000" height="30.000000" fill="none">
	<rect id="Premium Icons" width="30.000000" height="30.000000" x="0.000000" y="0.000000" fill="rgb(255,255,255)" fill-opacity="0" />
	<path id="Vector" d="M13.5 2C13.224 2 13 2.224 13 2.5L13 4L13 4.5C13 4.776 12.776 5 12.5 5C12.224 5 12 4.776 12 4.5L12 3.68359C12 3.68359 9 5.227 9 9C8.86749 8.99813 8.73593 9.02261 8.61296 9.07202C8.48999 9.12143 8.37807 9.1948 8.2837 9.28784C8.18933 9.38088 8.11439 9.49176 8.06324 9.61401C8.0121 9.73627 7.98576 9.86748 7.98576 10C7.98576 10.1325 8.0121 10.2637 8.06324 10.386C8.11439 10.5082 8.18933 10.6191 8.2837 10.7122C8.37807 10.8052 8.48999 10.8786 8.61296 10.928C8.73593 10.9774 8.86749 11.0019 9 11L9 11.002C9 12.106 9.52734 13.2148 9.52734 13.2148C9.31534 13.3368 8.96669 13.7241 9.05469 14.4121C9.21869 15.6951 9.77491 16.0218 10.1289 16.0488C10.2639 17.2458 11.55 18.777 12 19L12 21C11.9979 21.0063 11.9943 21.0114 11.9922 21.0176C11.6607 21.0581 11.3648 21.2532 11.2148 21.5566L10.8984 22.1953C8.76271 23.3925 4.42032 23.3092 3.28711 27L13.9141 27L14.5 25.084L13.3613 23L14.9746 23L16.6387 23L15.5 25.084L16.0859 27L26.7129 27C25.5797 23.3092 21.2373 23.3925 19.1016 22.1953L18.7852 21.5566C18.6352 21.2532 18.3393 21.0581 18.0078 21.0176C18.0057 21.0114 18.0021 21.0063 18 21L18 19C18.45 18.777 19.7361 17.2458 19.8711 16.0488C20.2251 16.0218 20.7813 15.6951 20.9453 14.4121C21.0333 13.7231 20.6847 13.3368 20.4727 13.2148C20.4727 13.2148 21 12.213 21 11.002L21 11C21.1325 11.0019 21.2641 10.9774 21.387 10.928C21.51 10.8786 21.6219 10.8052 21.7163 10.7122C21.8107 10.6191 21.8856 10.5082 21.9368 10.386C21.9879 10.2637 22.0142 10.1325 22.0142 10C22.0142 9.86748 21.9879 9.73627 21.9368 9.61401C21.8856 9.49176 21.8107 9.38088 21.7163 9.28784C21.6219 9.1948 21.51 9.12143 21.387 9.07202C21.2641 9.02261 21.1325 8.99813 21 9L14 9C13.448 9 13 8.552 13 8C13 7.448 13.448 7 14 7L20.9199 7C20.1339 4.561 18 3.67773 18 3.67773L18 4.5C18 4.776 17.776 5 17.5 5C17.224 5 17 4.776 17 4.5L17 3.29492L17 2.5C17 2.224 16.776 2 16.5 2L13.5 2Z" fill="rgb(255,255,255)" fill-rule="nonzero" />
</svg>
