<svg viewBox="0 0 331 279" xmlns="http://www.w3.org/2000/svg" xmlns:xlink="http://www.w3.org/1999/xlink" width="331.000000" height="279.000000" fill="none">
	<rect id="лого итог_Монтажная область 1 2" width="331.000000" height="279.000000" x="0.000000" y="0.000000" fill="rgb(255,255,255)" fill-opacity="0" />
	<path id="Vector" d="M109.549 155.936L96.818 155.936L131.127 120.487L165.424 85.0137L199.721 120.487L234.018 155.961L222.242 155.961L222.242 214.492L250.657 214.492C260.194 199.345 265.48 181.932 265.967 164.063C266.453 146.194 262.122 128.522 253.423 112.882C244.724 97.2428 231.976 84.2072 216.501 75.13C201.027 66.0529 183.393 61.2656 165.431 61.2656C147.468 61.2656 129.834 66.0529 114.36 75.13C98.8855 84.2072 86.1366 97.2428 77.4378 112.882C68.739 128.522 64.4078 146.194 64.8943 164.063C65.3809 181.932 70.6673 199.345 80.2044 214.492L109.485 214.492L109.549 155.936Z" fill="rgb(255,255,255)" fill-rule="nonzero" />
	<path id="Vector" d="M59.4659 213.31C60.8797 212.807 62.1295 211.931 63.0814 210.776C64.0315 209.626 64.6673 208.251 64.9274 206.785C65.1944 205.313 65.049 203.797 64.5073 202.401L63.2342 199.107C62.839 198.045 62.2279 197.074 61.4391 196.257C59.9028 194.656 57.8049 193.708 55.583 193.609C54.4465 193.561 53.3121 193.742 52.2475 194.141C50.8343 194.645 49.5848 195.521 48.632 196.675C47.7007 197.816 47.0823 199.178 46.837 200.628C46.5743 202.105 46.724 203.626 47.2698 205.024L48.5429 208.318C48.9368 209.375 49.5433 210.34 50.3252 211.156C51.0829 211.952 51.9859 212.596 52.9859 213.056C53.996 213.5 55.0787 213.758 56.1813 213.816C57.2994 213.871 58.417 213.699 59.4659 213.31ZM53.9789 210.776C53.2771 210.481 52.6411 210.05 52.1075 209.509C51.5527 208.933 51.1198 208.252 50.8344 207.507L49.5613 204.213C49.1772 203.23 49.0715 202.161 49.2558 201.122C49.4371 200.097 49.875 199.134 50.5289 198.322C51.1979 197.504 52.078 196.882 53.075 196.523C53.8207 196.235 54.6186 196.106 55.4175 196.143C56.1955 196.178 56.9599 196.359 57.6708 196.675C58.3885 197 59.0347 197.462 59.5721 198.036C60.1096 198.61 60.5277 199.284 60.8026 200.02L62.0757 203.301C62.4657 204.283 62.5716 205.354 62.3812 206.392C62.1994 207.413 61.7616 208.372 61.1081 209.179C60.439 210.001 59.5593 210.627 58.562 210.991C57.8128 211.266 57.0176 211.395 56.2195 211.371C55.4425 211.328 54.6814 211.134 53.9789 210.801L53.9789 210.776Z" fill="rgb(255,255,255)" fill-rule="nonzero" />
	<path id="Vector" d="M58.2434 181.487L57.836 179.004L43.4885 181.31L42.0499 172.391L39.5674 172.796L42.8519 193.092L45.3344 192.699L43.8958 183.78L58.2434 181.487Z" fill="rgb(255,255,255)" fill-rule="nonzero" />
	<path id="Vector" d="M53.5582 172.036L59.1088 172.162L59.1088 169.629L56.0789 169.553L56.5881 150.764L59.618 150.84L59.6817 148.306L54.1183 148.23L54.1183 151.372L39.5925 151.03L39.3252 162.673L53.6982 168.691L53.5582 172.036ZM41.8077 161.216L41.9859 153.526L53.991 153.805L53.6982 166.195L41.8077 161.216Z" fill="rgb(255,255,255)" fill-rule="nonzero" />
	<path id="Vector" d="M60.6359 130.237L58.1788 129.68L54.9834 143.768L49.6874 142.577L52.8828 128.502L50.4258 127.944L47.2304 142.032L43.2711 141.146L46.4538 127.057L43.9968 126.5L40.2539 143.033L56.893 146.771L60.6359 130.237Z" fill="rgb(255,255,255)" fill-rule="nonzero" />
	<path id="Vector" d="M61.5909 126.683L50.5151 115.75L52.1192 112.038L67.7271 112.57L68.7838 110.112L50.4897 109.504L47.5361 116.307L60.5342 129.141L61.5909 126.683Z" fill="rgb(255,255,255)" fill-rule="nonzero" />
	<path id="Vector" d="M70.7194 106.74L64.1758 102.255L70.7576 92.6897L79.0835 94.6155L80.4584 92.6137L69.51 90.0926L66.1872 94.9068L64.8505 85.2656L62.8772 88.1415L64.214 97.7701L62.1007 100.849L56.6646 97.1366L55.2388 99.2143L69.2935 108.805L70.7194 106.74Z" fill="rgb(255,255,255)" fill-rule="nonzero" />
	<path id="Vector" d="M82.1635 90.4806L80.012 85.413L88.5162 77.0767L93.5194 79.3064L95.2762 77.5961L78.548 70.2227L73.2393 75.4297L80.4194 92.191L82.1635 90.4806ZM76.0273 76.2025L79.2736 73.0352L86.0464 76.0125L78.9299 82.9805L76.0273 76.2025Z" fill="rgb(255,255,255)" fill-rule="nonzero" />
	<path id="Vector" d="M103.335 74.595L105.563 73.4041L104.125 70.7562L120.802 61.8245L122.215 64.4723L124.456 63.3448L121.821 58.4798L119.045 59.9621L112.171 47.293L101.846 52.7027L103.705 68.121L100.7 69.6794L103.335 74.595ZM111.152 50.5236L116.83 61.039L105.869 66.9175L104.392 54.2103L111.152 50.5236Z" fill="rgb(255,255,255)" fill-rule="nonzero" />
	<path id="Vector" d="M123.794 55.7467C124.864 56.7627 126.179 57.487 127.613 57.8497C129.075 58.2194 130.61 58.1888 132.056 57.7611L135.442 56.7982C136.519 56.4917 137.523 55.9754 138.397 55.2795C139.271 54.5835 139.998 53.7217 140.535 52.7441C141.072 51.7844 141.418 50.7304 141.553 49.6401C141.707 48.3365 141.558 47.0151 141.116 45.7782C140.675 44.5413 139.953 43.4221 139.007 42.5074C137.934 41.4951 136.62 40.7713 135.188 40.4043C133.726 40.0353 132.191 40.0659 130.745 40.493L127.358 41.4685C126.247 41.7905 125.216 42.3384 124.328 43.0775C123.474 43.7827 122.761 44.6424 122.228 45.6113C121.697 46.5726 121.355 47.6262 121.222 48.7153C121.059 50.0213 121.204 51.3472 121.646 52.5876C122.088 53.828 122.815 54.9487 123.768 55.8607L123.794 55.7467ZM123.794 48.9053C123.883 48.1367 124.121 47.3924 124.494 46.7136C124.871 46.0432 125.372 45.45 125.971 44.9652C126.589 44.4536 127.309 44.078 128.084 43.863L131.47 42.9001C132.494 42.6093 133.579 42.6093 134.602 42.9001C135.584 43.1569 136.485 43.6534 137.225 44.3444C138.002 45.0595 138.562 45.9767 138.842 46.9923C139.075 47.7525 139.153 48.5514 139.072 49.3421C138.991 50.1329 138.752 50.8995 138.368 51.597C137.985 52.2944 137.466 52.9087 136.841 53.4038C136.216 53.8988 135.498 54.2646 134.73 54.4797L131.343 55.4553C130.323 55.7397 129.244 55.7397 128.224 55.4553C127.216 55.2047 126.291 54.6984 125.538 53.9856C124.862 53.3389 124.346 52.5441 124.032 51.6644C123.718 50.7848 123.615 49.8444 123.73 48.918L123.794 48.9053Z" fill="rgb(255,255,255)" fill-rule="nonzero" />
	<path id="Vector" d="M147.855 53.6614L146.862 40.2955L153.202 48.9358L157.76 48.5938L162.89 38.8639L163.909 52.4705L166.417 52.2805L165.156 35.3672L161.808 35.6206L156.296 46.0726L154.284 46.2246L147.41 36.6848L144.074 36.9382L145.335 53.8515L147.855 53.6614Z" fill="rgb(255,255,255)" fill-rule="nonzero" />
	<path id="Vector" d="M172.247 51.4615C173.421 52.4085 174.835 53.0136 176.333 53.2098L179.834 53.6659C180.963 53.8229 182.113 53.7409 183.208 53.4252C184.269 53.1317 185.263 52.637 186.136 51.9683C187.006 51.2965 187.74 50.4668 188.3 49.5231C188.975 48.3832 189.372 47.1015 189.458 45.7812C189.544 44.4609 189.318 43.1389 188.797 41.9216C188.226 40.5655 187.309 39.3817 186.136 38.4883C184.961 37.543 183.547 36.9381 182.049 36.74L178.561 36.2965C177.437 36.1413 176.293 36.219 175.2 36.5246C173.058 37.1172 171.231 38.5168 170.108 40.4267C169.526 41.3999 169.153 42.4827 169.013 43.6066C168.805 45.0936 169.007 46.6089 169.599 47.9902C170.169 49.3534 171.08 50.5486 172.247 51.4615ZM171.496 43.9614C171.589 43.1728 171.85 42.4129 172.259 41.7316C172.648 41.0583 173.168 40.4684 173.787 39.9959C174.4 39.5318 175.095 39.1879 175.837 38.9824C176.605 38.7582 177.412 38.6978 178.205 38.805L181.706 39.2611C182.761 39.3836 183.762 39.796 184.596 40.452C185.418 41.0851 186.063 41.9185 186.467 42.8718C186.888 43.8402 187.033 44.9053 186.887 45.9504C186.794 46.743 186.533 47.5071 186.123 48.1929C185.734 48.8624 185.215 49.4481 184.596 49.9159C183.987 50.3963 183.285 50.7457 182.533 50.9421C181.764 51.162 180.957 51.2181 180.165 51.1068L176.664 50.676C175.61 50.5478 174.611 50.136 173.774 49.4851C172.94 48.8496 172.282 48.0122 171.865 47.0526C171.46 46.0752 171.332 45.006 171.496 43.9614Z" fill="rgb(255,255,255)" fill-rule="nonzero" />
	<path id="Vector" d="M204.863 59.0772C205.756 58.8639 206.58 58.4279 207.257 57.8103C207.955 57.2251 208.483 56.4637 208.784 55.6059C209.006 54.9498 209.092 54.2562 209.039 53.5661C208.978 52.8945 208.787 52.2409 208.479 51.6404C208.189 51.0463 207.787 50.513 207.295 50.0695C206.575 49.4936 205.749 49.0632 204.863 48.8025C205.301 48.2616 205.657 47.6598 205.92 47.0162C206.059 46.577 206.136 46.1208 206.149 45.6606C206.165 44.9217 206.001 44.19 205.67 43.528C205.34 42.8661 204.853 42.2937 204.252 41.8599C203.863 41.5874 203.434 41.3779 202.979 41.2391L195.455 38.7812L190.121 54.9851L202.139 58.9252C203.015 59.2274 203.959 59.2801 204.863 59.0772ZM197.072 42.0372L202.164 43.7222C202.419 43.7987 202.654 43.9273 202.856 44.0996C203.058 44.272 203.221 44.4843 203.336 44.7231C203.461 44.9612 203.536 45.2224 203.555 45.4904C203.575 45.7584 203.539 46.0277 203.45 46.2814C203.279 46.7836 202.915 47.1983 202.439 47.4355C201.962 47.6727 201.411 47.7132 200.904 47.5483L195.812 45.876L197.072 42.0372ZM195.01 48.2578C201.541 50.3989 204.876 51.5011 204.991 51.5644C205.566 51.8595 206.018 52.3491 206.264 52.9454C206.457 53.4221 206.509 53.9437 206.416 54.4492C206.322 54.9547 206.086 55.4233 205.736 55.8004C205.385 56.1775 204.933 56.4476 204.434 56.5792C203.935 56.7107 203.408 56.6983 202.916 56.5434L193.304 53.3888L195.01 48.2578Z" fill="rgb(255,255,255)" fill-rule="nonzero" />
	<path id="Vector" d="M237.148 61.4738L229.484 73.1674L231.598 74.5484L240.904 60.3336L238.154 58.5472L219.783 63.2728L227.435 51.5919L225.321 50.2109L216.015 64.4257L218.765 66.2121L237.148 61.4738Z" fill="rgb(255,255,255)" fill-rule="nonzero" />
	<path id="Vector" d="M241.325 82.8009L247.258 77.5305L255.011 86.1836L251.153 93.7597L252.783 95.5714L257.862 85.6008L253.954 81.2426L263.68 82.2561L261.35 79.6463L251.637 78.6454L249.129 75.8582L254.043 71.5L252.363 69.625L239.645 80.9259L241.325 82.8009Z" fill="rgb(255,255,255)" fill-rule="nonzero" />
	<path id="Vector" d="M260.166 107.283C260.632 108.081 261.316 108.731 262.139 109.158C262.921 109.578 263.796 109.796 264.685 109.791C265.502 109.791 266.307 109.601 267.036 109.236C267.766 108.871 268.399 108.341 268.886 107.688C269.278 107.137 269.563 106.519 269.726 105.864C269.897 105.22 269.953 104.551 269.892 103.888C269.721 102.981 269.366 102.119 268.848 101.354C269.536 101.225 270.201 100.994 270.821 100.67C271.218 100.431 271.575 100.132 271.878 99.7827C272.354 99.2304 272.694 98.5754 272.871 97.8697C273.043 97.1662 273.043 96.4321 272.871 95.7286C272.752 95.2818 272.568 94.8548 272.323 94.4617L268.224 87.7344L253.647 96.5268L260.166 107.283ZM267.346 91.2184L270.147 95.8046C270.422 96.2652 270.503 96.8158 270.372 97.3358C270.241 97.8558 269.908 98.3029 269.446 98.5792C269.222 98.7217 268.97 98.8157 268.707 98.855C268.444 98.8942 268.175 98.878 267.919 98.8072C267.654 98.752 267.404 98.6424 267.185 98.4853C266.966 98.3282 266.782 98.1271 266.646 97.895L263.858 93.3088L267.346 91.2184ZM267.142 103.583C267.396 104.179 267.423 104.845 267.218 105.459C267.031 106.079 266.612 106.605 266.047 106.928C265.744 107.114 265.406 107.238 265.054 107.293C264.702 107.347 264.343 107.332 263.997 107.247C263.651 107.162 263.325 107.009 263.039 106.798C262.753 106.587 262.512 106.321 262.33 106.016L257.085 97.4009L261.719 94.6137C265.283 100.442 267.091 103.419 267.142 103.545L267.142 103.583Z" fill="rgb(255,255,255)" fill-rule="nonzero" />
	<path id="Vector" d="M264.277 114.261L269.764 114.337L273.953 125.422L269.892 129.109L270.757 131.39L284.367 119.215L281.82 112.259L263.514 111.98L264.277 114.261ZM279.885 114.489L281.477 118.72L275.964 123.661L272.438 114.388L279.885 114.489Z" fill="rgb(255,255,255)" fill-rule="nonzero" />
	<path id="Vector" d="M271.649 135.207L278.129 134.092L279.847 144.024C279.962 144.711 280.218 145.366 280.599 145.95C281.154 146.813 281.952 147.494 282.894 147.909C283.836 148.324 284.879 148.453 285.895 148.281C286.807 148.131 287.66 147.737 288.364 147.141C289.061 146.559 289.595 145.808 289.917 144.962C290.249 144.098 290.337 143.161 290.172 142.251L288.021 129.848L271.165 132.736L271.649 135.207ZM285.971 132.762L287.677 142.682C287.747 143.03 287.742 143.39 287.663 143.737C287.584 144.084 287.433 144.411 287.219 144.696C287.014 144.992 286.752 145.245 286.447 145.438C286.143 145.632 285.802 145.763 285.446 145.823C285.09 145.883 284.725 145.872 284.374 145.789C284.022 145.706 283.691 145.554 283.399 145.342C283.099 145.146 282.844 144.888 282.651 144.587C282.458 144.286 282.331 143.947 282.279 143.594L280.573 133.674L285.971 132.762Z" fill="rgb(255,255,255)" fill-rule="nonzero" />
	<path id="Vector" d="M289.23 151.191L289.09 160.212L274.552 159.984L274.514 162.492L289.039 162.733L288.899 171.753L291.407 171.791L291.738 151.229L289.23 151.191Z" fill="rgb(255,255,255)" fill-rule="nonzero" />
	<path id="Vector" d="M273.711 176.42L284.812 191.75L271.088 188.887L270.566 191.344L287.244 194.816L287.918 191.61L276.83 176.293L290.554 179.157L291.063 176.699L274.386 173.215L273.711 176.42Z" fill="rgb(255,255,255)" fill-rule="nonzero" />
	<path id="Vector" d="M269.205 195.61L275.29 198.143L271.471 207.443C271.194 208.083 271.055 208.773 271.063 209.47C271.083 210.83 271.625 212.131 272.578 213.106C273.069 213.605 273.659 213.997 274.31 214.259C275.161 214.614 276.094 214.732 277.009 214.601C277.909 214.478 278.764 214.129 279.491 213.587C280.231 213.029 280.803 212.279 281.146 211.421L285.971 199.803L270.21 193.316L269.205 195.61ZM282.623 201.133L278.804 210.445C278.668 210.774 278.469 211.074 278.217 211.326C277.964 211.577 277.664 211.777 277.334 211.912C277.003 212.048 276.649 212.117 276.292 212.115C275.934 212.113 275.581 212.041 275.252 211.902C274.922 211.767 274.623 211.569 274.371 211.319C274.119 211.069 273.919 210.772 273.783 210.444C273.647 210.117 273.577 209.766 273.578 209.412C273.579 209.057 273.65 208.707 273.788 208.38L277.607 199.068L282.623 201.133Z" fill="rgb(255,255,255)" fill-rule="nonzero" />
	<path id="Vector" d="M187.244 155.489C185.055 152.634 182.243 150.311 179.02 148.698C175.696 147.016 172.016 146.147 168.287 146.164L138.523 146.164L138.523 193.838L168.287 193.838C171.481 193.86 174.645 193.226 177.581 191.976C180.43 190.789 183.023 189.069 185.219 186.908C185.956 186.175 186.641 185.392 187.269 184.564C189.707 181.43 191.321 177.741 191.965 173.83C192.61 169.919 192.265 165.91 190.961 162.165C190.093 159.754 188.838 157.5 187.244 155.489ZM179.834 174.835C179.209 176.317 178.306 177.667 177.174 178.813C176.033 179.951 174.679 180.855 173.189 181.473C171.648 182.111 169.994 182.434 168.326 182.423L149.904 182.423L149.904 157.529L168.326 157.529C170.532 157.506 172.702 158.085 174.602 159.201C176.474 160.295 178.035 161.848 179.134 163.711C180.102 165.387 180.668 167.262 180.79 169.191C180.911 171.121 180.584 173.052 179.834 174.835Z" fill="rgb(255,255,255)" fill-rule="nonzero" />
	<path id="Vector" d="M197.95 153.578L201.77 153.578C202.423 153.584 203.065 153.413 203.628 153.084C204.146 152.766 204.582 152.332 204.901 151.817C205.182 151.321 205.347 150.769 205.385 150.201C205.422 149.633 205.331 149.064 205.118 148.535C204.744 147.652 204.035 146.95 203.145 146.584C202.694 146.391 202.209 146.291 201.719 146.293L196.932 146.293C196.442 146.291 195.956 146.391 195.506 146.584C194.625 146.965 193.921 147.661 193.533 148.535C193.324 149.094 193.229 149.688 193.253 150.284L196.079 150.284C196.042 149.958 196.133 149.631 196.334 149.372C196.411 149.291 196.504 149.228 196.607 149.184C196.71 149.14 196.82 149.118 196.932 149.118L201.719 149.118C201.83 149.118 201.941 149.14 202.044 149.184C202.147 149.228 202.24 149.291 202.317 149.372C202.398 149.448 202.461 149.54 202.503 149.643C202.545 149.746 202.564 149.856 202.559 149.967C202.562 150.077 202.541 150.187 202.5 150.29C202.458 150.392 202.396 150.485 202.317 150.562C202.24 150.643 202.147 150.707 202.044 150.75C201.941 150.794 201.83 150.816 201.719 150.816L198.307 150.816C197.418 150.811 196.543 151.029 195.761 151.449C194.997 151.866 194.343 152.457 193.851 153.172C193.361 153.9 193.055 154.734 192.96 155.605C192.96 155.795 192.96 156.644 192.96 158.139L205.436 158.139L205.436 155.326L195.875 155.326C195.916 154.896 196.127 154.5 196.461 154.224C196.647 154.015 196.877 153.849 197.134 153.738C197.391 153.626 197.67 153.572 197.95 153.578Z" fill="rgb(255,255,255)" fill-rule="nonzero" />
	<path id="Vector" d="M125.958 242.839C127.566 242.177 128.965 241.096 130.007 239.709C131.022 238.4 131.694 236.86 131.962 235.228C132.231 233.596 132.089 231.923 131.547 230.36C131.185 229.344 130.665 228.391 130.007 227.534C129.077 226.314 127.873 225.327 126.491 224.652C125.11 223.976 123.589 223.632 122.05 223.645L109.548 223.645L109.548 243.624L122.05 243.624C123.393 243.63 124.723 243.363 125.958 242.839ZM114.322 228.396L122.063 228.396C122.988 228.385 123.9 228.626 124.698 229.093C125.489 229.551 126.147 230.206 126.608 230.993C127.011 231.699 127.246 232.487 127.297 233.297C127.348 234.107 127.212 234.918 126.9 235.668C126.636 236.287 126.256 236.85 125.78 237.328C125.292 237.813 124.712 238.197 124.074 238.458C123.436 238.719 122.753 238.852 122.063 238.848L114.322 238.848L114.322 228.396Z" fill="rgb(255,255,255)" fill-rule="nonzero" />
	<path id="Vector" d="M162.075 242.839C163.265 242.33 164.349 241.603 165.27 240.698C165.576 240.383 165.865 240.053 166.136 239.709C166.793 238.859 167.309 237.909 167.664 236.897C168.389 234.778 168.389 232.479 167.664 230.36C167.306 229.344 166.79 228.391 166.136 227.534C165.212 226.337 164.028 225.363 162.673 224.684C161.275 223.987 159.73 223.63 158.167 223.645L145.665 223.645L145.665 243.624L158.167 243.624C159.51 243.631 160.84 243.363 162.075 242.839ZM150.452 228.396L158.179 228.396C159.105 228.385 160.016 228.626 160.815 229.093C161.606 229.551 162.264 230.206 162.724 230.993C163.127 231.699 163.363 232.487 163.414 233.297C163.465 234.107 163.329 234.918 163.017 235.668C162.753 236.287 162.372 236.85 161.897 237.328C161.409 237.813 160.829 238.197 160.191 238.458C159.553 238.719 158.869 238.852 158.179 238.848L150.452 238.848L150.452 228.396Z" fill="rgb(255,255,255)" fill-rule="nonzero" />
	<path id="Vector" d="M175.914 242.271C177.453 243.182 179.216 243.651 181.006 243.626L184.711 243.626C186.054 243.633 187.384 243.365 188.619 242.841C189.809 242.332 190.893 241.605 191.815 240.7C192.722 239.776 193.451 238.693 193.966 237.507C194.565 236.085 194.825 234.545 194.726 233.006C194.627 231.467 194.17 229.973 193.393 228.639C192.515 227.141 191.26 225.897 189.752 225.028C188.213 224.119 186.45 223.654 184.66 223.685L180.955 223.685C179.189 223.682 177.454 224.143 175.924 225.022C174.394 225.9 173.125 227.165 172.244 228.689C171.363 230.212 170.902 231.94 170.907 233.697C170.912 235.455 171.383 237.18 172.273 238.698C173.166 240.174 174.418 241.403 175.914 242.271ZM176.118 231.603C176.515 230.65 177.188 229.836 178.052 229.265C178.916 228.694 179.931 228.392 180.968 228.398L184.673 228.398C185.603 228.385 186.519 228.626 187.321 229.095C188.112 229.553 188.77 230.208 189.23 230.995C189.701 231.793 189.943 232.705 189.93 233.63C189.933 234.331 189.795 235.024 189.523 235.67C189.254 236.289 188.87 236.853 188.39 237.33C187.903 237.817 187.324 238.204 186.686 238.467C186.048 238.73 185.363 238.865 184.673 238.863L180.968 238.863C180.037 238.872 179.121 238.626 178.32 238.153C177.529 237.695 176.871 237.04 176.41 236.253C175.942 235.458 175.7 234.552 175.71 233.63C175.701 232.934 175.84 232.243 176.118 231.603Z" fill="rgb(255,255,255)" fill-rule="nonzero" />
	<path id="Vector" d="M202.585 232.001L207.053 239.083L212.795 239.083L217.429 231.748L217.429 243.619L222.203 243.619L222.203 223.652L217.136 223.652L210.389 234.332L209.459 234.332L202.877 223.652L197.811 223.652L197.811 243.619L202.585 243.619L202.585 232.001Z" fill="rgb(255,255,255)" fill-rule="nonzero" />
	<path id="Vector" d="M143.54 230.583L136.22 230.583C136.254 230.258 136.414 229.958 136.665 229.747C136.807 229.601 136.977 229.485 137.165 229.407C137.354 229.329 137.556 229.289 137.76 229.291L140.713 229.291C141.211 229.298 141.7 229.166 142.127 228.911C142.549 228.668 142.901 228.318 143.145 227.898C143.401 227.473 143.534 226.986 143.527 226.491C143.528 226.117 143.454 225.747 143.311 225.402C143.166 225.066 142.958 224.761 142.699 224.502C142.444 224.249 142.141 224.047 141.808 223.907C141.461 223.765 141.089 223.692 140.713 223.691L137.06 223.691C136.684 223.691 136.312 223.764 135.965 223.907C135.288 224.192 134.749 224.728 134.463 225.402C134.314 225.807 134.241 226.237 134.246 226.669L136.41 226.669C136.382 226.421 136.451 226.171 136.601 225.972C136.661 225.911 136.732 225.862 136.811 225.829C136.89 225.797 136.974 225.781 137.06 225.782L140.713 225.782C140.861 225.811 140.993 225.89 141.088 226.006C141.183 226.121 141.235 226.266 141.235 226.415C141.235 226.565 141.183 226.709 141.088 226.825C140.993 226.94 140.861 227.019 140.713 227.049L138.104 227.049C137.422 227.041 136.751 227.211 136.156 227.543C135.568 227.859 135.067 228.312 134.694 228.864C134.322 229.416 134.089 230.049 134.017 230.71C134.017 230.849 134.017 231.496 134.017 232.661L143.552 232.661L143.54 230.583Z" fill="rgb(255,255,255)" fill-rule="nonzero" />
</svg>
