<svg viewBox="0 0 23.365 20" fill="none" xmlns="http://www.w3.org/2000/svg" xmlns:xlink="http://www.w3.org/1999/xlink" x="0" y="0"><path id="Vector" d="M11.6825,0.0003c-0.139,0 -0.277,0.035 -0.399,0.102l-10.833,5.908c-0.099,0.051 -0.186,0.122 -0.257,0.207c-0.071,0.085 -0.124,0.184 -0.157,0.29c-0.032,0.106 -0.043,0.217 -0.032,0.328c0.011,0.11 0.044,0.217 0.097,0.314c0.053,0.098 0.125,0.184 0.212,0.253c0.087,0.069 0.186,0.12 0.293,0.151c0.107,0.03 0.219,0.038 0.329,0.025c0.11,-0.014 0.216,-0.049 0.312,-0.104l9.655,-5.267c-0.035,0.093 -0.053,0.193 -0.053,0.293c0,0.221 0.087,0.433 0.244,0.589c0.156,0.156 0.368,0.244 0.589,0.244c0.221,0 0.433,-0.088 0.589,-0.244c0.157,-0.156 0.244,-0.368 0.244,-0.589c0,-0.1 -0.018,-0.2 -0.053,-0.293l9.655,5.267c0.096,0.055 0.202,0.09 0.312,0.104c0.11,0.013 0.222,0.005 0.329,-0.025c0.107,-0.031 0.206,-0.082 0.293,-0.151c0.087,-0.069 0.159,-0.155 0.212,-0.253c0.053,-0.097 0.086,-0.204 0.097,-0.314c0.011,-0.111 0,-0.222 -0.032,-0.328c-0.033,-0.106 -0.086,-0.205 -0.157,-0.29c-0.071,-0.085 -0.158,-0.156 -0.257,-0.207l-10.833,-5.908c-0.123,-0.067 -0.26,-0.102 -0.399,-0.102zM11.6825,5.0003c-0.221,0 -0.433,0.087 -0.589,0.244c-0.157,0.156 -0.244,0.368 -0.244,0.589c0,0.221 0.087,0.433 0.244,0.589c0.156,0.157 0.368,0.244 0.589,0.244c0.221,0 0.433,-0.087 0.589,-0.244c0.157,-0.156 0.244,-0.368 0.244,-0.589c0,-0.221 -0.087,-0.433 -0.244,-0.589c-0.156,-0.157 -0.368,-0.244 -0.589,-0.244zM1.6825,8.3333c-0.221,0 -0.433,0.088 -0.589,0.244c-0.157,0.156 -0.244,0.368 -0.244,0.589c0,0.221 0.087,0.433 0.244,0.59c0.156,0.156 0.368,0.244 0.589,0.244c0.221,0 0.433,-0.088 0.589,-0.244c0.157,-0.157 0.244,-0.369 0.244,-0.59c0,-0.221 -0.087,-0.433 -0.244,-0.589c-0.156,-0.156 -0.368,-0.244 -0.589,-0.244zM11.6825,8.3333c-0.221,0 -0.433,0.088 -0.589,0.244c-0.157,0.156 -0.244,0.368 -0.244,0.589c0,0.221 0.087,0.433 0.244,0.59c0.156,0.156 0.368,0.244 0.589,0.244c0.221,0 0.433,-0.088 0.589,-0.244c0.157,-0.157 0.244,-0.369 0.244,-0.59c0,-0.221 -0.087,-0.433 -0.244,-0.589c-0.156,-0.156 -0.368,-0.244 -0.589,-0.244zM21.6825,8.3333c-0.221,0 -0.433,0.088 -0.589,0.244c-0.157,0.156 -0.244,0.368 -0.244,0.589c0,0.221 0.087,0.433 0.244,0.59c0.156,0.156 0.368,0.244 0.589,0.244c0.221,0 0.433,-0.088 0.589,-0.244c0.157,-0.157 0.244,-0.369 0.244,-0.59c0,-0.221 -0.087,-0.433 -0.244,-0.589c-0.156,-0.156 -0.368,-0.244 -0.589,-0.244zM1.6825,11.6663c-0.221,0 -0.433,0.088 -0.589,0.244c-0.157,0.157 -0.244,0.369 -0.244,0.59c0,0.221 0.087,0.433 0.244,0.589c0.156,0.156 0.368,0.244 0.589,0.244c0.221,0 0.433,-0.088 0.589,-0.244c0.157,-0.156 0.244,-0.368 0.244,-0.589c0,-0.221 -0.087,-0.433 -0.244,-0.59c-0.156,-0.156 -0.368,-0.244 -0.589,-0.244zM5.0155,11.6663c-0.221,0 -0.433,0.088 -0.589,0.244c-0.156,0.157 -0.244,0.369 -0.244,0.59c0,0.221 0.088,0.433 0.244,0.589c0.156,0.156 0.368,0.244 0.589,0.244c0.221,0 0.433,-0.088 0.59,-0.244c0.156,-0.156 0.244,-0.368 0.244,-0.589c0,-0.221 -0.088,-0.433 -0.244,-0.59c-0.157,-0.156 -0.369,-0.244 -0.59,-0.244zM8.3495,11.6663c-0.221,0 -0.433,0.088 -0.59,0.244c-0.156,0.157 -0.244,0.369 -0.244,0.59c0,0.221 0.088,0.433 0.244,0.589c0.157,0.156 0.369,0.244 0.59,0.244c0.221,0 0.433,-0.088 0.589,-0.244c0.156,-0.156 0.244,-0.368 0.244,-0.589c0,-0.221 -0.088,-0.433 -0.244,-0.59c-0.156,-0.156 -0.368,-0.244 -0.589,-0.244zM11.6825,11.6663c-0.221,0 -0.433,0.088 -0.589,0.244c-0.157,0.157 -0.244,0.369 -0.244,0.59c0,0.221 0.087,0.433 0.244,0.589c0.156,0.156 0.368,0.244 0.589,0.244c0.221,0 0.433,-0.088 0.589,-0.244c0.157,-0.156 0.244,-0.368 0.244,-0.589c0,-0.221 -0.087,-0.433 -0.244,-0.59c-0.156,-0.156 -0.368,-0.244 -0.589,-0.244zM15.0155,11.6663c-0.221,0 -0.433,0.088 -0.589,0.244c-0.156,0.157 -0.244,0.369 -0.244,0.59c0,0.221 0.088,0.433 0.244,0.589c0.156,0.156 0.368,0.244 0.589,0.244c0.221,0 0.433,-0.088 0.59,-0.244c0.156,-0.156 0.244,-0.368 0.244,-0.589c0,-0.221 -0.088,-0.433 -0.244,-0.59c-0.157,-0.156 -0.369,-0.244 -0.59,-0.244zM18.3495,11.6663c-0.221,0 -0.433,0.088 -0.59,0.244c-0.156,0.157 -0.244,0.369 -0.244,0.59c0,0.221 0.088,0.433 0.244,0.589c0.157,0.156 0.369,0.244 0.59,0.244c0.221,0 0.433,-0.088 0.589,-0.244c0.156,-0.156 0.244,-0.368 0.244,-0.589c0,-0.221 -0.088,-0.433 -0.244,-0.59c-0.156,-0.156 -0.368,-0.244 -0.589,-0.244zM21.6825,11.6663c-0.221,0 -0.433,0.088 -0.589,0.244c-0.157,0.157 -0.244,0.369 -0.244,0.59c0,0.221 0.087,0.433 0.244,0.589c0.156,0.156 0.368,0.244 0.589,0.244c0.221,0 0.433,-0.088 0.589,-0.244c0.157,-0.156 0.244,-0.368 0.244,-0.589c0,-0.221 -0.087,-0.433 -0.244,-0.59c-0.156,-0.156 -0.368,-0.244 -0.589,-0.244zM1.6825,15.0003c-0.221,0 -0.433,0.087 -0.589,0.244c-0.157,0.156 -0.244,0.368 -0.244,0.589c0,0.221 0.087,0.433 0.244,0.589c0.156,0.157 0.368,0.244 0.589,0.244c0.221,0 0.433,-0.087 0.589,-0.244c0.157,-0.156 0.244,-0.368 0.244,-0.589c0,-0.221 -0.087,-0.433 -0.244,-0.589c-0.156,-0.157 -0.368,-0.244 -0.589,-0.244zM11.6825,15.0003c-0.221,0 -0.433,0.087 -0.589,0.244c-0.157,0.156 -0.244,0.368 -0.244,0.589c0,0.221 0.087,0.433 0.244,0.589c0.156,0.157 0.368,0.244 0.589,0.244c0.221,0 0.433,-0.087 0.589,-0.244c0.157,-0.156 0.244,-0.368 0.244,-0.589c0,-0.221 -0.087,-0.433 -0.244,-0.589c-0.156,-0.157 -0.368,-0.244 -0.589,-0.244zM21.6825,15.0003c-0.221,0 -0.433,0.087 -0.589,0.244c-0.157,0.156 -0.244,0.368 -0.244,0.589c0,0.221 0.087,0.433 0.244,0.589c0.156,0.157 0.368,0.244 0.589,0.244c0.221,0 0.433,-0.087 0.589,-0.244c0.157,-0.156 0.244,-0.368 0.244,-0.589c0,-0.221 -0.087,-0.433 -0.244,-0.589c-0.156,-0.157 -0.368,-0.244 -0.589,-0.244zM1.6825,18.3333c-0.221,0 -0.433,0.088 -0.589,0.244c-0.157,0.156 -0.244,0.368 -0.244,0.589c0,0.221 0.087,0.433 0.244,0.59c0.156,0.156 0.368,0.244 0.589,0.244c0.221,0 0.433,-0.088 0.589,-0.244c0.157,-0.157 0.244,-0.369 0.244,-0.59c0,-0.221 -0.087,-0.433 -0.244,-0.589c-0.156,-0.156 -0.368,-0.244 -0.589,-0.244zM5.0155,18.3333c-0.221,0 -0.433,0.088 -0.589,0.244c-0.156,0.156 -0.244,0.368 -0.244,0.589c0,0.221 0.088,0.433 0.244,0.59c0.156,0.156 0.368,0.244 0.589,0.244c0.221,0 0.433,-0.088 0.59,-0.244c0.156,-0.157 0.244,-0.369 0.244,-0.59c0,-0.221 -0.088,-0.433 -0.244,-0.589c-0.157,-0.156 -0.369,-0.244 -0.59,-0.244zM8.3495,18.3333c-0.221,0 -0.433,0.088 -0.59,0.244c-0.156,0.156 -0.244,0.368 -0.244,0.589c0,0.221 0.088,0.433 0.244,0.59c0.157,0.156 0.369,0.244 0.59,0.244c0.221,0 0.433,-0.088 0.589,-0.244c0.156,-0.157 0.244,-0.369 0.244,-0.59c0,-0.221 -0.088,-0.433 -0.244,-0.589c-0.156,-0.156 -0.368,-0.244 -0.589,-0.244zM11.6825,18.3333c-0.221,0 -0.433,0.088 -0.589,0.244c-0.157,0.156 -0.244,0.368 -0.244,0.589c0,0.221 0.087,0.433 0.244,0.59c0.156,0.156 0.368,0.244 0.589,0.244c0.221,0 0.433,-0.088 0.589,-0.244c0.157,-0.157 0.244,-0.369 0.244,-0.59c0,-0.221 -0.087,-0.433 -0.244,-0.589c-0.156,-0.156 -0.368,-0.244 -0.589,-0.244zM15.0155,18.3333c-0.221,0 -0.433,0.088 -0.589,0.244c-0.156,0.156 -0.244,0.368 -0.244,0.589c0,0.221 0.088,0.433 0.244,0.59c0.156,0.156 0.368,0.244 0.589,0.244c0.221,0 0.433,-0.088 0.59,-0.244c0.156,-0.157 0.244,-0.369 0.244,-0.59c0,-0.221 -0.088,-0.433 -0.244,-0.589c-0.157,-0.156 -0.369,-0.244 -0.59,-0.244zM18.3495,18.3333c-0.221,0 -0.433,0.088 -0.59,0.244c-0.156,0.156 -0.244,0.368 -0.244,0.589c0,0.221 0.088,0.433 0.244,0.59c0.157,0.156 0.369,0.244 0.59,0.244c0.221,0 0.433,-0.088 0.589,-0.244c0.156,-0.157 0.244,-0.369 0.244,-0.59c0,-0.221 -0.088,-0.433 -0.244,-0.589c-0.156,-0.156 -0.368,-0.244 -0.589,-0.244zM21.6825,18.3333c-0.221,0 -0.433,0.088 -0.589,0.244c-0.157,0.156 -0.244,0.368 -0.244,0.589c0,0.221 0.087,0.433 0.244,0.59c0.156,0.156 0.368,0.244 0.589,0.244c0.221,0 0.433,-0.088 0.589,-0.244c0.157,-0.157 0.244,-0.369 0.244,-0.59c0,-0.221 -0.087,-0.433 -0.244,-0.589c-0.156,-0.156 -0.368,-0.244 -0.589,-0.244z" fill="currentColor"/></svg>