<svg width="40" height="40" viewBox="0 0 40 40" fill="none" xmlns="http://www.w3.org/2000/svg">
<path d="M0 20C0 8.95431 8.95431 0 20 0C31.0457 0 40 8.95431 40 20C40 31.0457 31.0457 40 20 40C8.95431 40 0 31.0457 0 20Z" fill="white" fill-opacity="0.06" style="mix-blend-mode:plus-lighter"/>
<path d="M20 8C19.072 8 18.2531 8.4298 17.7031 9.0918C17.4771 9.0368 17.243 9 17 9C15.689 9 14.5857 9.84558 14.1777 11.0176C14.1177 11.0136 14.061 11 14 11C12.343 11 11 12.343 11 14C11 14.395 11.0817 14.7692 11.2207 15.1152C9.9447 15.4602 9 16.615 9 18C9 19.067 9.56139 19.9973 10.4004 20.5293C10.1534 20.9653 10 21.463 10 22C10 23.657 11.343 25 13 25C13.061 25 13.1177 24.9864 13.1777 24.9824C13.5857 26.1544 14.689 27 16 27C16.907 27 17.7117 26.5882 18.2617 25.9512C17.9027 28.0712 17.451 29.549 17 30C16.8675 29.9981 16.7359 30.0226 16.613 30.072C16.49 30.1214 16.3781 30.1948 16.2837 30.2878C16.1893 30.3809 16.1144 30.4918 16.0632 30.614C16.0121 30.7363 15.9858 30.8675 15.9858 31C15.9858 31.1325 16.0121 31.2637 16.0632 31.386C16.1144 31.5082 16.1893 31.6191 16.2837 31.7122C16.3781 31.8052 16.49 31.8786 16.613 31.928C16.7359 31.9774 16.8675 32.0019 17 32H23C23.1325 32.0019 23.2641 31.9774 23.387 31.928C23.51 31.8786 23.6219 31.8052 23.7163 31.7122C23.8107 31.6191 23.8856 31.5082 23.9368 31.386C23.9879 31.2637 24.0142 31.1325 24.0142 31C24.0142 30.8675 23.9879 30.7363 23.9368 30.614C23.8856 30.4918 23.8107 30.3809 23.7163 30.2878C23.6219 30.1948 23.51 30.1214 23.387 30.072C23.2641 30.0226 23.1325 29.9981 23 30C22.549 29.549 22.0973 28.0712 21.7383 25.9512C22.2883 26.5882 23.093 27 24 27C25.311 27 26.4143 26.1544 26.8223 24.9824C26.8823 24.9864 26.939 25 27 25C28.657 25 30 23.657 30 22C30 21.463 29.8466 20.9653 29.5996 20.5293C30.4386 19.9973 31 19.067 31 18C31 16.615 30.0553 15.4602 28.7793 15.1152C28.9183 14.7692 29 14.395 29 14C29 12.343 27.657 11 26 11C25.939 11 25.8823 11.0136 25.8223 11.0176C25.4143 9.84558 24.311 9 23 9C22.757 9 22.5229 9.0368 22.2969 9.0918C21.7469 8.4298 20.928 8 20 8ZM20 14C20.0766 14 20.1546 14.0177 20.2246 14.0527L24.2246 16.0527C24.4716 16.1777 24.5703 16.4776 24.4473 16.7246C24.3593 16.8986 24.183 17 24 17V22H22V18H18V22H16V17L16.0078 16.9961C15.8218 16.9991 15.6417 16.9007 15.5527 16.7227C15.4297 16.4757 15.5303 16.1767 15.7773 16.0527L19.7773 14.0527C19.8478 14.0177 19.9234 14 20 14Z" fill="white"/>
</svg>
