<svg width="40" height="40" viewBox="0 0 40 40" fill="none" xmlns="http://www.w3.org/2000/svg">
<path d="M0 20C0 8.95431 8.95431 0 20 0C31.0457 0 40 8.95431 40 20C40 31.0457 31.0457 40 20 40C8.95431 40 0 31.0457 0 20Z" fill="white" fill-opacity="0.06" style="mix-blend-mode:plus-lighter"/>
<path d="M21 7C20.738 7 20.5032 7.10648 20.3242 7.27148L15.3984 11.3027C14.9728 11.1133 14.5069 11 14 11C12.9954 11 12.1352 11.4451 11.4375 12.0566C11.2904 12.0377 11.1604 12 11 12C9.03902 12 7.45561 13.4564 7.125 15.3242C6.46395 16.0332 6 16.9486 6 18C6 18.7457 6.26134 19.4065 6.61719 20C6.26134 20.5935 6 21.2543 6 22C6 23.6267 7.05591 24.9229 8.45703 25.543C9.07706 26.9441 10.3733 28 12 28C12.3542 28 12.6835 27.9306 13 27.832V30C12.9981 30.1325 13.0226 30.2641 13.072 30.387C13.1214 30.51 13.1948 30.6219 13.2878 30.7163C13.3809 30.8107 13.4918 30.8856 13.614 30.9368C13.7363 30.9879 13.8675 31.0142 14 31.0142C14.1325 31.0142 14.2637 30.9879 14.386 30.9368C14.5082 30.8856 14.6191 30.8107 14.7122 30.7163C14.8052 30.6219 14.8786 30.51 14.928 30.387C14.9774 30.2641 15.0019 30.1325 15 30V27C15.0007 26.911 14.9895 26.8223 14.9668 26.7363C15.2973 26.8602 15.6193 27 16 27C16.3485 27 16.6792 26.9393 17 26.8535V31H29C30.105 31 31 30.105 31 29V18H32C32.552 18 33 17.552 33 17C33 16.711 32.8747 16.4554 32.6797 16.2734L31 14.8984V11C31 10.448 30.552 10 30 10H29C28.448 10 28 10.448 28 11V12.4453L21.6758 7.27148C21.4968 7.10648 21.262 7 21 7ZM14 13C14.8808 13 15.6038 13.563 15.877 14.3477L16.1289 15.0664L16.8887 15.0156C17.0613 15.0041 17.092 15 17 15C18.1167 15 19 15.8833 19 17C19 17.1415 18.9774 17.2948 18.9355 17.4668L18.7891 18.0723L19.2695 18.4727C19.7199 18.8469 20 19.3809 20 20C20 20.8808 19.437 21.6038 18.6523 21.877L17.9336 22.1289L17.9844 22.8887C17.9959 23.0613 18 23.092 18 23C18 24.1167 17.1167 25 16 25C15.6529 25 15.33 24.9041 15.0234 24.7305L14.1953 24.2617L13.6855 25.0645C13.3281 25.6281 12.7165 26 12 26C11.0889 26 10.347 25.4 10.0977 24.5723L9.94336 24.0566L9.42773 23.9023C8.59998 23.653 8 22.9111 8 22C8 21.4871 8.19376 21.0339 8.52148 20.6699L9.125 20L8.52148 19.3301C8.19376 18.9661 8 18.5129 8 18C8 17.4024 8.26181 16.8819 8.68555 16.5078L8.98828 16.2402L9.02148 15.8379C9.10554 14.8016 9.94146 14 11 14C11.1415 14 11.2948 14.0226 11.4668 14.0645L12.0723 14.2109L12.4727 13.7305C12.8469 13.2801 13.3809 13 14 13ZM24 22H28V26H24V22Z" fill="white"/>
</svg>
