<svg width="40" height="40" viewBox="0 0 40 40" fill="none" xmlns="http://www.w3.org/2000/svg">
<path d="M0 20C0 8.95431 8.95431 0 20 0C31.0457 0 40 8.95431 40 20C40 31.0457 31.0457 40 20 40C8.95431 40 0 31.0457 0 20Z" fill="white" fill-opacity="0.06" style="mix-blend-mode:plus-lighter"/>
<path d="M19.5 8.66669C19.3606 8.66698 19.2235 8.70223 19.1012 8.76923L8.26789 14.6774C8.16935 14.7284 8.08198 14.7986 8.01091 14.8838C7.93984 14.969 7.8865 15.0675 7.85402 15.1736C7.82154 15.2797 7.81057 15.3912 7.82175 15.5016C7.83293 15.612 7.86604 15.719 7.91914 15.8165C7.97224 15.9139 8.04426 15.9997 8.13098 16.0689C8.21769 16.1382 8.31735 16.1894 8.42412 16.2196C8.53088 16.2498 8.6426 16.2583 8.75273 16.2448C8.86285 16.2312 8.96916 16.1958 9.06542 16.1406L18.7204 10.8737C18.685 10.9674 18.6668 11.0666 18.6667 11.1667C18.6667 11.3877 18.7545 11.5997 18.9107 11.7559C19.067 11.9122 19.279 12 19.5 12C19.721 12 19.933 11.9122 20.0892 11.7559C20.2455 11.5997 20.3333 11.3877 20.3333 11.1667C20.3332 11.0666 20.315 10.9674 20.2796 10.8737L29.9346 16.1406C30.0308 16.1958 30.1371 16.2312 30.2472 16.2448C30.3574 16.2583 30.4691 16.2498 30.5759 16.2196C30.6826 16.1894 30.7823 16.1382 30.869 16.0689C30.9557 15.9997 31.0277 15.9139 31.0808 15.8165C31.1339 15.719 31.167 15.612 31.1782 15.5016C31.1894 15.3912 31.1784 15.2797 31.1459 15.1736C31.1135 15.0675 31.0601 14.969 30.9891 14.8838C30.918 14.7986 30.8306 14.7284 30.7321 14.6774L19.8988 8.76923C19.7765 8.70223 19.6394 8.66698 19.5 8.66669ZM19.5 13.6667C19.279 13.6667 19.067 13.7545 18.9107 13.9108C18.7545 14.067 18.6667 14.279 18.6667 14.5C18.6667 14.721 18.7545 14.933 18.9107 15.0893C19.067 15.2456 19.279 15.3334 19.5 15.3334C19.721 15.3334 19.933 15.2456 20.0892 15.0893C20.2455 14.933 20.3333 14.721 20.3333 14.5C20.3333 14.279 20.2455 14.067 20.0892 13.9108C19.933 13.7545 19.721 13.6667 19.5 13.6667ZM9.49999 17C9.27897 17 9.06701 17.0878 8.91073 17.2441C8.75445 17.4004 8.66665 17.6123 8.66665 17.8334C8.66665 18.0544 8.75445 18.2663 8.91073 18.4226C9.06701 18.5789 9.27897 18.6667 9.49999 18.6667C9.721 18.6667 9.93296 18.5789 10.0892 18.4226C10.2455 18.2663 10.3333 18.0544 10.3333 17.8334C10.3333 17.6123 10.2455 17.4004 10.0892 17.2441C9.93296 17.0878 9.721 17 9.49999 17ZM19.5 17C19.279 17 19.067 17.0878 18.9107 17.2441C18.7545 17.4004 18.6667 17.6123 18.6667 17.8334C18.6667 18.0544 18.7545 18.2663 18.9107 18.4226C19.067 18.5789 19.279 18.6667 19.5 18.6667C19.721 18.6667 19.933 18.5789 20.0892 18.4226C20.2455 18.2663 20.3333 18.0544 20.3333 17.8334C20.3333 17.6123 20.2455 17.4004 20.0892 17.2441C19.933 17.0878 19.721 17 19.5 17ZM29.5 17C29.279 17 29.067 17.0878 28.9107 17.2441C28.7545 17.4004 28.6667 17.6123 28.6667 17.8334C28.6667 18.0544 28.7545 18.2663 28.9107 18.4226C29.067 18.5789 29.279 18.6667 29.5 18.6667C29.721 18.6667 29.933 18.5789 30.0892 18.4226C30.2455 18.2663 30.3333 18.0544 30.3333 17.8334C30.3333 17.6123 30.2455 17.4004 30.0892 17.2441C29.933 17.0878 29.721 17 29.5 17ZM9.49999 20.3334C9.27897 20.3334 9.06701 20.4212 8.91073 20.5774C8.75445 20.7337 8.66665 20.9457 8.66665 21.1667C8.66665 21.3877 8.75445 21.5997 8.91073 21.7559C9.06701 21.9122 9.27897 22 9.49999 22C9.721 22 9.93296 21.9122 10.0892 21.7559C10.2455 21.5997 10.3333 21.3877 10.3333 21.1667C10.3333 20.9457 10.2455 20.7337 10.0892 20.5774C9.93296 20.4212 9.721 20.3334 9.49999 20.3334ZM12.8333 20.3334C12.6123 20.3334 12.4003 20.4212 12.2441 20.5774C12.0878 20.7337 12 20.9457 12 21.1667C12 21.3877 12.0878 21.5997 12.2441 21.7559C12.4003 21.9122 12.6123 22 12.8333 22C13.0543 22 13.2663 21.9122 13.4226 21.7559C13.5789 21.5997 13.6667 21.3877 13.6667 21.1667C13.6667 20.9457 13.5789 20.7337 13.4226 20.5774C13.2663 20.4212 13.0543 20.3334 12.8333 20.3334ZM16.1667 20.3334C15.9456 20.3334 15.7337 20.4212 15.5774 20.5774C15.4211 20.7337 15.3333 20.9457 15.3333 21.1667C15.3333 21.3877 15.4211 21.5997 15.5774 21.7559C15.7337 21.9122 15.9456 22 16.1667 22C16.3877 22 16.5996 21.9122 16.7559 21.7559C16.9122 21.5997 17 21.3877 17 21.1667C17 20.9457 16.9122 20.7337 16.7559 20.5774C16.5996 20.4212 16.3877 20.3334 16.1667 20.3334ZM19.5 20.3334C19.279 20.3334 19.067 20.4212 18.9107 20.5774C18.7545 20.7337 18.6667 20.9457 18.6667 21.1667C18.6667 21.3877 18.7545 21.5997 18.9107 21.7559C19.067 21.9122 19.279 22 19.5 22C19.721 22 19.933 21.9122 20.0892 21.7559C20.2455 21.5997 20.3333 21.3877 20.3333 21.1667C20.3333 20.9457 20.2455 20.7337 20.0892 20.5774C19.933 20.4212 19.721 20.3334 19.5 20.3334ZM22.8333 20.3334C22.6123 20.3334 22.4003 20.4212 22.2441 20.5774C22.0878 20.7337 22 20.9457 22 21.1667C22 21.3877 22.0878 21.5997 22.2441 21.7559C22.4003 21.9122 22.6123 22 22.8333 22C23.0543 22 23.2663 21.9122 23.4226 21.7559C23.5789 21.5997 23.6667 21.3877 23.6667 21.1667C23.6667 20.9457 23.5789 20.7337 23.4226 20.5774C23.2663 20.4212 23.0543 20.3334 22.8333 20.3334ZM26.1667 20.3334C25.9456 20.3334 25.7337 20.4212 25.5774 20.5774C25.4211 20.7337 25.3333 20.9457 25.3333 21.1667C25.3333 21.3877 25.4211 21.5997 25.5774 21.7559C25.7337 21.9122 25.9456 22 26.1667 22C26.3877 22 26.5996 21.9122 26.7559 21.7559C26.9122 21.5997 27 21.3877 27 21.1667C27 20.9457 26.9122 20.7337 26.7559 20.5774C26.5996 20.4212 26.3877 20.3334 26.1667 20.3334ZM29.5 20.3334C29.279 20.3334 29.067 20.4212 28.9107 20.5774C28.7545 20.7337 28.6667 20.9457 28.6667 21.1667C28.6667 21.3877 28.7545 21.5997 28.9107 21.7559C29.067 21.9122 29.279 22 29.5 22C29.721 22 29.933 21.9122 30.0892 21.7559C30.2455 21.5997 30.3333 21.3877 30.3333 21.1667C30.3333 20.9457 30.2455 20.7337 30.0892 20.5774C29.933 20.4212 29.721 20.3334 29.5 20.3334ZM9.49999 23.6667C9.27897 23.6667 9.06701 23.7545 8.91073 23.9108C8.75445 24.067 8.66665 24.279 8.66665 24.5C8.66665 24.721 8.75445 24.933 8.91073 25.0893C9.06701 25.2456 9.27897 25.3334 9.49999 25.3334C9.721 25.3334 9.93296 25.2456 10.0892 25.0893C10.2455 24.933 10.3333 24.721 10.3333 24.5C10.3333 24.279 10.2455 24.067 10.0892 23.9108C9.93296 23.7545 9.721 23.6667 9.49999 23.6667ZM19.5 23.6667C19.279 23.6667 19.067 23.7545 18.9107 23.9108C18.7545 24.067 18.6667 24.279 18.6667 24.5C18.6667 24.721 18.7545 24.933 18.9107 25.0893C19.067 25.2456 19.279 25.3334 19.5 25.3334C19.721 25.3334 19.933 25.2456 20.0892 25.0893C20.2455 24.933 20.3333 24.721 20.3333 24.5C20.3333 24.279 20.2455 24.067 20.0892 23.9108C19.933 23.7545 19.721 23.6667 19.5 23.6667ZM29.5 23.6667C29.279 23.6667 29.067 23.7545 28.9107 23.9108C28.7545 24.067 28.6667 24.279 28.6667 24.5C28.6667 24.721 28.7545 24.933 28.9107 25.0893C29.067 25.2456 29.279 25.3334 29.5 25.3334C29.721 25.3334 29.933 25.2456 30.0892 25.0893C30.2455 24.933 30.3333 24.721 30.3333 24.5C30.3333 24.279 30.2455 24.067 30.0892 23.9108C29.933 23.7545 29.721 23.6667 29.5 23.6667ZM9.49999 27C9.27897 27 9.06701 27.0878 8.91073 27.2441C8.75445 27.4004 8.66665 27.6123 8.66665 27.8334C8.66665 28.0544 8.75445 28.2663 8.91073 28.4226C9.06701 28.5789 9.27897 28.6667 9.49999 28.6667C9.721 28.6667 9.93296 28.5789 10.0892 28.4226C10.2455 28.2663 10.3333 28.0544 10.3333 27.8334C10.3333 27.6123 10.2455 27.4004 10.0892 27.2441C9.93296 27.0878 9.721 27 9.49999 27ZM12.8333 27C12.6123 27 12.4003 27.0878 12.2441 27.2441C12.0878 27.4004 12 27.6123 12 27.8334C12 28.0544 12.0878 28.2663 12.2441 28.4226C12.4003 28.5789 12.6123 28.6667 12.8333 28.6667C13.0543 28.6667 13.2663 28.5789 13.4226 28.4226C13.5789 28.2663 13.6667 28.0544 13.6667 27.8334C13.6667 27.6123 13.5789 27.4004 13.4226 27.2441C13.2663 27.0878 13.0543 27 12.8333 27ZM16.1667 27C15.9456 27 15.7337 27.0878 15.5774 27.2441C15.4211 27.4004 15.3333 27.6123 15.3333 27.8334C15.3333 28.0544 15.4211 28.2663 15.5774 28.4226C15.7337 28.5789 15.9456 28.6667 16.1667 28.6667C16.3877 28.6667 16.5996 28.5789 16.7559 28.4226C16.9122 28.2663 17 28.0544 17 27.8334C17 27.6123 16.9122 27.4004 16.7559 27.2441C16.5996 27.0878 16.3877 27 16.1667 27ZM19.5 27C19.279 27 19.067 27.0878 18.9107 27.2441C18.7545 27.4004 18.6667 27.6123 18.6667 27.8334C18.6667 28.0544 18.7545 28.2663 18.9107 28.4226C19.067 28.5789 19.279 28.6667 19.5 28.6667C19.721 28.6667 19.933 28.5789 20.0892 28.4226C20.2455 28.2663 20.3333 28.0544 20.3333 27.8334C20.3333 27.6123 20.2455 27.4004 20.0892 27.2441C19.933 27.0878 19.721 27 19.5 27ZM22.8333 27C22.6123 27 22.4003 27.0878 22.2441 27.2441C22.0878 27.4004 22 27.6123 22 27.8334C22 28.0544 22.0878 28.2663 22.2441 28.4226C22.4003 28.5789 22.6123 28.6667 22.8333 28.6667C23.0543 28.6667 23.2663 28.5789 23.4226 28.4226C23.5789 28.2663 23.6667 28.0544 23.6667 27.8334C23.6667 27.6123 23.5789 27.4004 23.4226 27.2441C23.2663 27.0878 23.0543 27 22.8333 27ZM26.1667 27C25.9456 27 25.7337 27.0878 25.5774 27.2441C25.4211 27.4004 25.3333 27.6123 25.3333 27.8334C25.3333 28.0544 25.4211 28.2663 25.5774 28.4226C25.7337 28.5789 25.9456 28.6667 26.1667 28.6667C26.3877 28.6667 26.5996 28.5789 26.7559 28.4226C26.9122 28.2663 27 28.0544 27 27.8334C27 27.6123 26.9122 27.4004 26.7559 27.2441C26.5996 27.0878 26.3877 27 26.1667 27ZM29.5 27C29.279 27 29.067 27.0878 28.9107 27.2441C28.7545 27.4004 28.6667 27.6123 28.6667 27.8334C28.6667 28.0544 28.7545 28.2663 28.9107 28.4226C29.067 28.5789 29.279 28.6667 29.5 28.6667C29.721 28.6667 29.933 28.5789 30.0892 28.4226C30.2455 28.2663 30.3333 28.0544 30.3333 27.8334C30.3333 27.6123 30.2455 27.4004 30.0892 27.2441C29.933 27.0878 29.721 27 29.5 27Z" fill="white"/>
</svg>
