<svg width="40" height="40" viewBox="0 0 40 40" fill="none" xmlns="http://www.w3.org/2000/svg">
<path d="M0 20C0 8.95431 8.95431 0 20 0C31.0457 0 40 8.95431 40 20C40 31.0457 31.0457 40 20 40C8.95431 40 0 31.0457 0 20Z" fill="white" fill-opacity="0.06" style="mix-blend-mode:plus-lighter"/>
<path d="M24 7C23.448 7 23 7.448 23 8V9H19C19 9.552 18.552 10 18 10C17.448 10 17 9.552 17 9H13C13 9.552 12.552 10 12 10C11.448 10 11 9.552 11 9H10C8.895 9 8 9.895 8 11V18C8 18.2652 8.10536 18.5196 8.29289 18.7071C8.48043 18.8946 8.73478 19 9 19V29C9 30.0931 9.90694 31 11 31H29C30.0931 31 31 30.0931 31 29V19C31.2652 19 31.5196 18.8946 31.7071 18.7071C31.8946 18.5196 32 18.2652 32 18V14C31.448 14 31 13.552 31 13C31 12.448 31.448 12 32 12V11C32 9.895 31.105 9 30 9H29C28.448 9 28 9.448 28 10V11C28 11.552 27.552 12 27 12C26.448 12 26 11.552 26 11V10V9V8C26 7.448 25.552 7 25 7H24ZM14 12C14.552 12 15 12.448 15 13C15 13.552 14.552 14 14 14C13.448 14 13 13.552 13 13C13 12.448 13.448 12 14 12ZM20 13L26 19H29V29H22V24C22 22.895 21.105 22 20 22C18.895 22 18 22.895 18 24V29H11V19H14L16.293 16.707C16.112 16.526 16 16.276 16 16C16 15.448 16.448 15 17 15C17.276 15 17.526 15.112 17.707 15.293L20 13ZM28 15C28.552 15 29 15.448 29 16C29 16.552 28.552 17 28 17C27.448 17 27 16.552 27 16C27 15.448 27.448 15 28 15ZM13 22V25H16V22H13ZM24 22V25H27V22H24Z" fill="white"/>
</svg>
