<svg viewBox="0 0 16.6831 12.0059" xmlns="http://www.w3.org/2000/svg" xmlns:xlink="http://www.w3.org/1999/xlink" width="16.683105" height="12.005859" fill="none" customFrame="#000000">
	<path id="Vector" d="M15.9966 0.000289842C15.8234 0.0054506 15.6591 0.0778367 15.5383 0.202113L5.34299 10.3974L1.14768 6.20211C1.08625 6.13813 1.01267 6.08705 0.931251 6.05186C0.849832 6.01667 0.76221 5.99808 0.673517 5.99718C0.584823 5.99627 0.49684 6.01308 0.414722 6.0466C0.332604 6.08013 0.258001 6.1297 0.195282 6.19242C0.132562 6.25514 0.0829883 6.32975 0.0494622 6.41186C0.0159361 6.49398 -0.000867871 6.58196 3.45076e-05 6.67066C0.000936886 6.75935 0.0195275 6.84697 0.0547174 6.92839C0.0899073 7.00981 0.140989 7.08339 0.204971 7.14482L4.87164 11.8115C4.99667 11.9365 5.16621 12.0067 5.34299 12.0067C5.51977 12.0067 5.68932 11.9365 5.81435 11.8115L16.481 1.14482C16.5773 1.05118 16.6431 0.930619 16.6698 0.798939C16.6964 0.667259 16.6827 0.530603 16.6303 0.406879C16.5779 0.283156 16.4894 0.178136 16.3764 0.105583C16.2633 0.0330305 16.1309 -0.0036704 15.9966 0.000289842Z" fill="rgb(255,255,255)" fill-opacity="0.800000012" fill-rule="nonzero" />
</svg>
